<svg width="19" height="19" viewBox="0 0 19 19" fill="none" xmlns="http://www.w3.org/2000/svg">
<g clip-path="url(#clip0_1_105)">
<path d="M9.5 7.12498C8.87011 7.12498 8.26602 7.3752 7.82062 7.8206C7.37523 8.266 7.125 8.87009 7.125 9.49998C7.125 10.1299 7.37523 10.734 7.82062 11.1794C8.26602 11.6248 8.87011 11.875 9.5 11.875C10.1299 11.875 10.734 11.6248 11.1794 11.1794C11.6248 10.734 11.875 10.1299 11.875 9.49998C11.875 8.87009 11.6248 8.266 11.1794 7.8206C10.734 7.3752 10.1299 7.12498 9.5 7.12498ZM9.5 5.54165C10.5498 5.54165 11.5566 5.95868 12.299 6.70102C13.0413 7.44335 13.4583 8.45017 13.4583 9.49998C13.4583 10.5498 13.0413 11.5566 12.299 12.2989C11.5566 13.0413 10.5498 13.4583 9.5 13.4583C8.45019 13.4583 7.44337 13.0413 6.70104 12.2989C5.95871 11.5566 5.54167 10.5498 5.54167 9.49998C5.54167 8.45017 5.95871 7.44335 6.70104 6.70102C7.44337 5.95868 8.45019 5.54165 9.5 5.54165ZM14.6458 5.34373C14.6458 5.60618 14.5416 5.85789 14.356 6.04347C14.1704 6.22905 13.9187 6.33331 13.6563 6.33331C13.3938 6.33331 13.1421 6.22905 12.9565 6.04347C12.7709 5.85789 12.6667 5.60618 12.6667 5.34373C12.6667 5.08128 12.7709 4.82957 12.9565 4.64399C13.1421 4.45841 13.3938 4.35415 13.6563 4.35415C13.9187 4.35415 14.1704 4.45841 14.356 4.64399C14.5416 4.82957 14.6458 5.08128 14.6458 5.34373ZM9.5 3.16665C7.54142 3.16665 7.22159 3.17219 6.31038 3.21256C5.68971 3.24185 5.27329 3.32498 4.88696 3.4754C4.54338 3.6084 4.29559 3.76752 4.03196 4.03194C3.78417 4.27134 3.59366 4.56361 3.47463 4.88694C3.32421 5.27485 3.24109 5.69048 3.21259 6.31036C3.17142 7.18436 3.16667 7.48994 3.16667 9.49998C3.16667 11.4586 3.17221 11.7784 3.21259 12.6896C3.24188 13.3095 3.325 13.7267 3.47463 14.1122C3.60921 14.4566 3.76754 14.7044 4.03038 14.9672C4.29717 15.2332 4.54496 15.3924 4.88538 15.5238C5.27646 15.675 5.69288 15.7589 6.31038 15.7874C7.18438 15.8286 7.48996 15.8333 9.5 15.8333C11.4586 15.8333 11.7784 15.8278 12.6896 15.7874C13.3087 15.7581 13.7259 15.675 14.1123 15.5254C14.455 15.3916 14.7044 15.2324 14.9673 14.9696C15.234 14.7028 15.3932 14.455 15.5246 14.1146C15.675 13.7243 15.7589 13.3071 15.7874 12.6896C15.8286 11.8156 15.8333 11.51 15.8333 9.49998C15.8333 7.5414 15.8278 7.22156 15.7874 6.31036C15.7581 5.69127 15.675 5.27327 15.5246 4.88694C15.4053 4.56394 15.2151 4.27178 14.968 4.03194C14.7288 3.78402 14.4364 3.59349 14.113 3.4746C13.7251 3.32419 13.3087 3.24106 12.6896 3.21256C11.8156 3.1714 11.51 3.16665 9.5 3.16665ZM9.5 1.58331C11.651 1.58331 11.9193 1.59123 12.7633 1.63081C13.6064 1.6704 14.1803 1.8026 14.6854 1.99894C15.2079 2.20002 15.6481 2.47235 16.0883 2.91173C16.4908 3.30748 16.8023 3.7862 17.001 4.31456C17.1966 4.81885 17.3296 5.3936 17.3692 6.23673C17.4064 7.08065 17.4167 7.34902 17.4167 9.49998C17.4167 11.6509 17.4088 11.9193 17.3692 12.7632C17.3296 13.6064 17.1966 14.1803 17.001 14.6854C16.8029 15.2141 16.4913 15.6929 16.0883 16.0882C15.6924 16.4907 15.2137 16.8021 14.6854 17.001C14.1811 17.1966 13.6064 17.3296 12.7633 17.3691C11.9193 17.4064 11.651 17.4166 9.5 17.4166C7.34904 17.4166 7.08067 17.4087 6.23675 17.3691C5.39363 17.3296 4.81967 17.1966 4.31459 17.001C3.78601 16.8027 3.30721 16.4911 2.91175 16.0882C2.50912 15.6925 2.19761 15.2138 1.99896 14.6854C1.80263 14.1811 1.67042 13.6064 1.63084 12.7632C1.59363 11.9193 1.58334 11.6509 1.58334 9.49998C1.58334 7.34902 1.59125 7.08065 1.63084 6.23673C1.67042 5.39281 1.80263 4.81965 1.99896 4.31456C2.19706 3.78587 2.50864 3.30703 2.91175 2.91173C3.30733 2.50895 3.78609 2.19743 4.31459 1.99894C4.81967 1.8026 5.39284 1.6704 6.23675 1.63081C7.08067 1.5936 7.34904 1.58331 9.5 1.58331Z" fill="#E0BEA2"/>
</g>
<defs>
<clipPath id="clip0_1_105">
<rect width="19" height="19" fill="white"/>
</clipPath>
</defs>
</svg>
