<svg width="19" height="19" viewBox="0 0 19 19" fill="none" xmlns="http://www.w3.org/2000/svg">
<g clip-path="url(#clip0_1_108)">
<path d="M9.5 15.8333C11.1797 15.8333 12.7906 15.1661 13.9783 13.9783C15.1661 12.7906 15.8333 11.1797 15.8333 9.49998C15.8333 7.82028 15.1661 6.20937 13.9783 5.02164C12.7906 3.83391 11.1797 3.16665 9.5 3.16665C7.8203 3.16665 6.20939 3.83391 5.02166 5.02164C3.83393 6.20937 3.16667 7.82028 3.16667 9.49998C3.16667 11.1797 3.83393 12.7906 5.02166 13.9783C6.20939 15.1661 7.8203 15.8333 9.5 15.8333ZM9.5 17.4166C5.12763 17.4166 1.58334 13.8724 1.58334 9.49998C1.58334 5.1276 5.12763 1.58331 9.5 1.58331C13.8724 1.58331 17.4167 5.1276 17.4167 9.49998C17.4167 13.8724 13.8724 17.4166 9.5 17.4166ZM7.03792 10.4262L5.06034 9.80952C4.63284 9.6789 4.63046 9.3844 5.15613 9.17302L12.8614 6.19636C13.3087 6.01427 13.562 6.24465 13.4172 6.82177L12.1054 13.0126C12.0135 13.4536 11.7483 13.5589 11.3802 13.3554L9.36067 11.8607L8.41938 12.7696C8.32279 12.863 8.24442 12.9429 8.09559 12.9627C7.94754 12.9833 7.82563 12.939 7.73617 12.6936L7.04742 10.4207L7.03792 10.4262Z" fill="#E0BEA2"/>
</g>
<defs>
<clipPath id="clip0_1_108">
<rect width="19" height="19" fill="white"/>
</clipPath>
</defs>
</svg>
