<svg width="132" height="21" viewBox="0 0 132 21" fill="none" xmlns="http://www.w3.org/2000/svg">
<path d="M75.8408 17.09C74.8208 17.09 73.9688 16.91 73.2848 16.55C72.6008 16.19 72.0548 15.704 71.6468 15.092C71.2388 14.468 70.9448 13.772 70.7648 13.004C70.5848 12.236 70.4948 11.45 70.4948 10.646V4.22H71.4128V10.646C71.4128 11.342 71.4848 12.026 71.6288 12.698C71.7728 13.37 72.0068 13.976 72.3308 14.516C72.6668 15.044 73.1168 15.464 73.6808 15.776C74.2568 16.088 74.9708 16.244 75.8228 16.244C76.6868 16.244 77.4008 16.082 77.9648 15.758C78.5408 15.434 78.9908 15.008 79.3148 14.48C79.6508 13.94 79.8848 13.34 80.0168 12.68C80.1608 12.008 80.2328 11.33 80.2328 10.646V4.22H81.1508V10.646C81.1508 11.498 81.0548 12.314 80.8628 13.094C80.6828 13.862 80.3828 14.546 79.9628 15.146C79.5428 15.746 78.9968 16.22 78.3248 16.568C77.6528 16.916 76.8248 17.09 75.8408 17.09ZM87.7673 4.22H88.5593L93.9593 17H92.9873L91.2053 12.788H85.1033L83.3213 17H82.3313L87.7673 4.22ZM90.9533 12.032L88.1633 5.336L85.3193 12.032H90.9533ZM105.8 4.22V17H104.882V10.88H96.8178V17H95.8998V4.22H96.8178V10.052H104.882V4.22H105.8Z" fill="white"/>
<path d="M122.019 10.8891L125.908 7L127.019 8.11094L122.019 13.1109L117.019 8.11094L118.13 7L122.019 10.8891Z" fill="white"/>
<path d="M40 11.8891L43.8891 8L45 9.11094L40 14.1109L35 9.11094L36.1109 8L40 11.8891Z" fill="white"/>
<path d="M1.674 17V4.22H6.984C7.536 4.22 8.034 4.334 8.478 4.562C8.934 4.79 9.324 5.096 9.648 5.48C9.984 5.852 10.242 6.272 10.422 6.74C10.614 7.208 10.71 7.688 10.71 8.18C10.71 8.816 10.584 9.41 10.332 9.962C10.08 10.514 9.726 10.976 9.27 11.348C8.826 11.72 8.304 11.948 7.704 12.032L10.89 17H9.828L6.732 12.176H2.592V17H1.674ZM2.592 11.33H7.074C7.626 11.33 8.106 11.18 8.514 10.88C8.922 10.58 9.234 10.19 9.45 9.71C9.678 9.23 9.792 8.72 9.792 8.18C9.792 7.628 9.66 7.118 9.396 6.65C9.144 6.17 8.802 5.786 8.37 5.498C7.95 5.198 7.476 5.048 6.948 5.048H2.592V11.33ZM18.5115 17.09C17.4915 17.09 16.6395 16.91 15.9555 16.55C15.2715 16.19 14.7255 15.704 14.3175 15.092C13.9095 14.468 13.6155 13.772 13.4355 13.004C13.2555 12.236 13.1655 11.45 13.1655 10.646V4.22H14.0835V10.646C14.0835 11.342 14.1555 12.026 14.2995 12.698C14.4435 13.37 14.6775 13.976 15.0015 14.516C15.3375 15.044 15.7875 15.464 16.3515 15.776C16.9275 16.088 17.6415 16.244 18.4935 16.244C19.3575 16.244 20.0715 16.082 20.6355 15.758C21.2115 15.434 21.6615 15.008 21.9855 14.48C22.3215 13.94 22.5555 13.34 22.6875 12.68C22.8315 12.008 22.9035 11.33 22.9035 10.646V4.22H23.8215V10.646C23.8215 11.498 23.7255 12.314 23.5335 13.094C23.3535 13.862 23.0535 14.546 22.6335 15.146C22.2135 15.746 21.6675 16.22 20.9955 16.568C20.3235 16.916 19.4955 17.09 18.5115 17.09Z" fill="white"/>
</svg>
