<svg width="63" height="21" viewBox="0 0 63 21" fill="none" xmlns="http://www.w3.org/2000/svg">
<path d="M6.8408 17.09C5.8208 17.09 4.9688 16.91 4.2848 16.55C3.6008 16.19 3.0548 15.704 2.6468 15.092C2.2388 14.468 1.9448 13.772 1.7648 13.004C1.5848 12.236 1.4948 11.45 1.4948 10.646V4.22H2.4128V10.646C2.4128 11.342 2.4848 12.026 2.6288 12.698C2.7728 13.37 3.0068 13.976 3.3308 14.516C3.6668 15.044 4.1168 15.464 4.6808 15.776C5.2568 16.088 5.9708 16.244 6.8228 16.244C7.6868 16.244 8.4008 16.082 8.9648 15.758C9.5408 15.434 9.9908 15.008 10.3148 14.48C10.6508 13.94 10.8848 13.34 11.0168 12.68C11.1608 12.008 11.2328 11.33 11.2328 10.646V4.22H12.1508V10.646C12.1508 11.498 12.0548 12.314 11.8628 13.094C11.6828 13.862 11.3828 14.546 10.9628 15.146C10.5428 15.746 9.9968 16.22 9.3248 16.568C8.6528 16.916 7.8248 17.09 6.8408 17.09ZM18.7673 4.22H19.5593L24.9593 17H23.9873L22.2053 12.788H16.1033L14.3213 17H13.3313L18.7673 4.22ZM21.9533 12.032L19.1633 5.336L16.3193 12.032H21.9533ZM36.7998 4.22V17H35.8818V10.88H27.8178V17H26.8998V4.22H27.8178V10.052H35.8818V4.22H36.7998Z" fill="white"/>
<path d="M53.0188 10.8891L56.9079 7L58.0188 8.11094L53.0188 13.1109L48.0188 8.11094L49.1297 7L53.0188 10.8891Z" fill="white"/>
</svg>
